{
  "source": "C:\\Users\\Peter\\Desktop\\stuff\\MIUN\\quantitative_research\\video_compression\\videos\\BVI-HD\\Bookcase_1920x1080_60fps.mp4",
  "output": "C:\\Users\\Peter\\Desktop\\stuff\\MIUN\\quantitative_research\\video_compression\\compressed_videos\\BVI-HD\\av1\\12\\Bookcase_1920x1080_60fps_av1.mkv",
  "codec": "av1",
  "ok": "Input #0, mov,mp4,m4a,3gp,3g2,mj2, from 'C:\\Users\\Peter\\Desktop\\stuff\\MIUN\\quantitative_research\\video_compression\\videos\\BVI-HD\\Bookcase_1920x1080_60fps.mp4':\n  Metadata:\n    major_brand     : isom\n    minor_version   : 512\n    compatible_brands: isomiso2avc1mp41\n    encoder         : Lavf54.28.101\n  Duration: 00:00:05.00, start: 0.000000, bitrate: 336321 kb/s\n  Stream #0:0[0x1](und): Video: h264 (High 4:4:4 Predictive) (avc1 / 0x31637661), yuv420p(progressive), 1920x1080, 336316 kb/s, 60 fps, 60 tbr, 60 tbn (default)\n    Metadata:\n      handler_name    : VideoHandler\n      vendor_id       : [0][0][0][0]\n[out#0/matroska @ 000001fba48511c0] Codec AVOption b:a (set bitrate (in bits/s)) has not been used for any stream. The most likely reason is either wrong type (e.g. a video option with no video streams) or that it is a private option of some decoder which was not actually used for any stream.\nStream mapping:\n  Stream #0:0 -> #0:0 (h264 (native) -> av1 (libsvtav1))\nPress [q] to stop, [?] for help\nSvt[info]: -------------------------------------------\nSvt[info]: SVT [version]:\tSVT-AV1 Encoder Lib v3.1.0-19-g6ecfe8ec\nSvt[info]: SVT [build]  :\tGCC 15.2.0\t 64 bit\nSvt[info]: LIB Build date: Aug 17 2025 11:37:13\nSvt[info]: -------------------------------------------\nSvt[info]: Level of Parallelism: 5\nSvt[info]: Number of PPCS 93\nSvt[info]: [asm level on system : up to avx2]\nSvt[info]: [asm level selected : up to avx2]\nSvt[info]: -------------------------------------------\nSvt[info]: SVT [config]: main profile\ttier (auto)\tlevel (auto)\nSvt[info]: SVT [config]: width / height / fps numerator / fps denominator \t\t: 1920 / 1080 / 60 / 1\nSvt[info]: SVT [config]: bit-depth / color format \t\t\t\t\t: 8 / YUV420\nSvt[info]: SVT [config]: preset / tune / pred struct \t\t\t\t\t: 4 / PSNR / random access\nSvt[info]: SVT [config]: gop size / mini-gop size / key-frame type \t\t\t: 321 / 16 / key frame\nSvt[info]: SVT [config]: BRC mode / target bitrate (kbps)\t\t\t\t: VBR / 12000 \nSvt[info]: SVT [config]: AQ mode / Variance Boost \t\t\t\t\t: 2 / 0\nSvt[info]: SVT [config]: sharpness / luminance-based QP bias \t\t\t\t: 0 / 0\nSvt[info]: SVT [config]: QP scale compress strength \t\t\t\t\t: 0\nSvt[info]: -------------------------------------------\nOutput #0, matroska, to 'C:\\Users\\Peter\\Desktop\\stuff\\MIUN\\quantitative_research\\video_compression\\compressed_videos\\BVI-HD\\av1\\12\\Bookcase_1920x1080_60fps_av1.mkv':\n  Metadata:\n    major_brand     : isom\n    minor_version   : 512\n    compatible_brands: isomiso2avc1mp41\n    encoder         : Lavf62.3.100\n  Stream #0:0(und): Video: av1 (AV01 / 0x31305641), yuv420p(tv, progressive), 1920x1080, q=2-31, 12000 kb/s, 60 fps, 1k tbn (default)\n    Metadata:\n      encoder         : Lavc62.11.100 libsvtav1\n      handler_name    : VideoHandler\n      vendor_id       : [0][0][0][0]\n    Side data:\n      cpb: bitrate max/min/avg: 0/0/12000000 buffer size: 12000000 vbv_delay: N/A\nframe=    0 fps=0.0 q=0.0 size=       0KiB time=N/A bitrate=N/A speed=N/A elapsed=0:00:12.43    \nframe=    0 fps=0.0 q=0.0 size=       0KiB time=N/A bitrate=N/A speed=N/A elapsed=0:00:13.09    \nframe=    0 fps=0.0 q=0.0 size=       0KiB time=N/A bitrate=N/A speed=N/A elapsed=0:00:13.67    \nframe=    0 fps=0.0 q=0.0 size=       0KiB time=N/A bitrate=N/A speed=N/A elapsed=0:00:14.24    \nframe=    0 fps=0.0 q=0.0 size=       0KiB time=N/A bitrate=N/A speed=N/A elapsed=0:00:14.76    \nframe=    0 fps=0.0 q=0.0 size=       0KiB time=N/A bitrate=N/A speed=N/A elapsed=0:00:15.27    \nframe=    0 fps=0.0 q=0.0 size=       0KiB time=N/A bitrate=N/A speed=N/A elapsed=0:00:15.87    \nframe=    0 fps=0.0 q=0.0 size=       0KiB time=N/A bitrate=N/A speed=N/A elapsed=0:00:16.43    \nframe=    0 fps=0.0 q=0.0 size=       0KiB time=N/A bitrate=N/A speed=N/A elapsed=0:00:16.97    \nframe=    0 fps=0.0 q=0.0 size=       0KiB time=N/A bitrate=N/A speed=N/A elapsed=0:00:17.52    \nframe=    0 fps=0.0 q=0.0 size=       0KiB time=N/A bitrate=N/A speed=N/A elapsed=0:00:18.04    \nframe=    0 fps=0.0 q=0.0 size=       0KiB time=N/A bitrate=N/A speed=N/A elapsed=0:00:18.61    \nframe=    0 fps=0.0 q=0.0 size=       0KiB time=N/A bitrate=N/A speed=N/A elapsed=0:00:19.30    \nframe=    0 fps=0.0 q=0.0 size=       0KiB time=N/A bitrate=N/A speed=N/A elapsed=0:00:19.91    \nframe=    0 fps=0.0 q=0.0 size=       0KiB time=N/A bitrate=N/A speed=N/A elapsed=0:00:20.48    \nframe=    0 fps=0.0 q=0.0 size=       0KiB time=N/A bitrate=N/A speed=N/A elapsed=0:00:21.03    \nframe=    0 fps=0.0 q=0.0 size=       0KiB time=N/A bitrate=N/A speed=N/A elapsed=0:00:21.68    \nframe=    0 fps=0.0 q=0.0 size=       0KiB time=N/A bitrate=N/A speed=N/A elapsed=0:00:22.38    \nframe=    1 fps=0.0 q=6.0 size=       1KiB time=00:00:00.00 bitrate=N/A speed=   0x elapsed=0:00:23.07    \nframe=    1 fps=0.0 q=6.0 size=       1KiB time=00:00:00.00 bitrate=N/A speed=   0x elapsed=0:00:23.76    \nframe=    1 fps=0.0 q=6.0 size=       1KiB time=00:00:00.00 bitrate=N/A speed=   0x elapsed=0:00:24.49    \nframe=    1 fps=0.0 q=6.0 size=       1KiB time=00:00:00.00 bitrate=N/A speed=   0x elapsed=0:00:25.15    \nframe=    1 fps=0.0 q=6.0 size=       1KiB time=00:00:00.00 bitrate=N/A speed=   0x elapsed=0:00:25.89    \nframe=    1 fps=0.0 q=6.0 size=       1KiB time=00:00:00.00 bitrate=N/A speed=   0x elapsed=0:00:26.69    \nframe=    2 fps=0.1 q=24.0 size=       1KiB time=00:00:00.00 bitrate=N/A speed=   0x elapsed=0:00:27.47    \nframe=    3 fps=0.1 q=21.0 size=       1KiB time=00:00:00.03 bitrate= 170.9kbits/s speed=0.00118x elapsed=0:00:28.30    \nframe=    5 fps=0.2 q=19.0 size=       1KiB time=00:00:00.06 bitrate=  85.4kbits/s speed=0.00229x elapsed=0:00:29.14    \nframe=    6 fps=0.2 q=19.0 size=       1KiB time=00:00:00.08 bitrate=  68.4kbits/s speed=0.00279x elapsed=0:00:29.85    \nframe=    7 fps=0.2 q=19.0 size=       1KiB time=00:00:00.08 bitrate=  68.4kbits/s speed=0.00274x elapsed=0:00:30.41    \nframe=    8 fps=0.3 q=19.0 size=       1KiB time=00:00:00.11 bitrate=  48.8kbits/s speed=0.00375x elapsed=0:00:31.10    \nframe=   10 fps=0.3 q=17.0 size=       1KiB time=00:00:00.13 bitrate=  42.7kbits/s speed=0.00418x elapsed=0:00:31.90    \nframe=   12 fps=0.4 q=17.0 size=       1KiB time=00:00:00.18 bitrate=  31.1kbits/s speed=0.0056x elapsed=0:00:32.73    \nframe=   13 fps=0.4 q=16.0 size=       1KiB time=00:00:00.18 bitrate=  31.1kbits/s speed=0.00546x elapsed=0:00:33.59    \nframe=   14 fps=0.4 q=15.0 size=       1KiB time=00:00:00.20 bitrate=  28.5kbits/s speed=0.0058x elapsed=0:00:34.49    \nframe=   17 fps=0.5 q=6.0 size=       1KiB time=00:00:00.25 bitrate=  22.8kbits/s speed=0.00707x elapsed=0:00:35.34    \nframe=   18 fps=0.5 q=14.0 size=       1KiB time=00:00:00.28 bitrate=  20.1kbits/s speed=0.00783x elapsed=0:00:36.16    \nframe=   20 fps=0.5 q=14.0 size=       1KiB time=00:00:00.31 bitrate=  18.0kbits/s speed=0.00858x elapsed=0:00:36.88    \nframe=   21 fps=0.6 q=15.0 size=       1KiB time=00:00:00.31 bitrate=  18.0kbits/s speed=0.00841x elapsed=0:00:37.66    \nframe=   22 fps=0.6 q=10.0 size=       1KiB time=00:00:00.33 bitrate=  17.1kbits/s speed=0.00868x elapsed=0:00:38.42    \nframe=   23 fps=0.6 q=9.0 size=       1KiB time=00:00:00.36 bitrate=  15.5kbits/s speed=0.00936x elapsed=0:00:39.15    \nframe=   24 fps=0.6 q=22.0 size=       1KiB time=00:00:00.38 bitrate=  14.9kbits/s speed=0.00959x elapsed=0:00:39.96    \nframe=   25 fps=0.6 q=11.0 size=       1KiB time=00:00:00.40 bitrate=  14.2kbits/s speed=0.00982x elapsed=0:00:40.74    \nframe=   25 fps=0.6 q=11.0 size=       1KiB time=00:00:00.40 bitrate=  14.2kbits/s speed=0.0097x elapsed=0:00:41.24    \nframe=   26 fps=0.6 q=13.0 size=       1KiB time=00:00:00.41 bitrate=  13.7kbits/s speed=0.00998x elapsed=0:00:41.75    \nframe=   26 fps=0.6 q=13.0 size=       1KiB time=00:00:00.41 bitrate=  13.7kbits/s speed=0.00986x elapsed=0:00:42.27    \nframe=   27 fps=0.6 q=17.0 size=       1KiB time=00:00:00.43 bitrate=  13.1kbits/s speed=0.0101x elapsed=0:00:42.79    \nframe=   27 fps=0.6 q=17.0 size=       1KiB time=00:00:00.43 bitrate=  13.1kbits/s speed=0.01x elapsed=0:00:43.34    \nframe=   28 fps=0.6 q=9.0 size=       1KiB time=00:00:00.45 bitrate=  12.7kbits/s speed=0.0103x elapsed=0:00:43.85    \nframe=   30 fps=0.7 q=22.0 size=       1KiB time=00:00:00.46 bitrate=  12.2kbits/s speed=0.0105x elapsed=0:00:44.38    \nframe=   32 fps=0.7 q=11.0 size=       1KiB time=00:00:00.51 bitrate=  11.0kbits/s speed=0.0115x elapsed=0:00:44.98    \nframe=   33 fps=0.7 q=5.0 size=       1KiB time=00:00:00.53 bitrate=  10.7kbits/s speed=0.0117x elapsed=0:00:45.55    \nframe=   34 fps=0.7 q=12.0 size=       1KiB time=00:00:00.55 bitrate=  10.4kbits/s speed=0.0119x elapsed=0:00:46.11    \nframe=   34 fps=0.7 q=12.0 size=       1KiB time=00:00:00.55 bitrate=  10.4kbits/s speed=0.0118x elapsed=0:00:46.67    \nframe=   35 fps=0.7 q=15.0 size=       1KiB time=00:00:00.56 bitrate=  10.1kbits/s speed=0.012x elapsed=0:00:47.18    \nframe=   35 fps=0.7 q=15.0 size=       1KiB time=00:00:00.56 bitrate=  10.1kbits/s speed=0.0119x elapsed=0:00:47.70    \nframe=   37 fps=0.8 q=14.0 size=       1KiB time=00:00:00.60 bitrate=   9.5kbits/s speed=0.0124x elapsed=0:00:48.26    \nframe=   37 fps=0.8 q=14.0 size=       1KiB time=00:00:00.60 bitrate=   9.5kbits/s speed=0.0123x elapsed=0:00:48.80    \nframe=   38 fps=0.8 q=19.0 size=       1KiB time=00:00:00.61 bitrate=   9.2kbits/s speed=0.0125x elapsed=0:00:49.30    \nframe=   39 fps=0.8 q=13.0 size=       1KiB time=00:00:00.63 bitrate=   9.0kbits/s speed=0.0127x elapsed=0:00:49.82    \nframe=   39 fps=0.8 q=13.0 size=       1KiB time=00:00:00.63 bitrate=   9.0kbits/s speed=0.0126x elapsed=0:00:50.42    \nframe=   42 fps=0.8 q=22.0 size=       1KiB time=00:00:00.68 bitrate=   8.3kbits/s speed=0.0134x elapsed=0:00:50.96    \nframe=   42 fps=0.8 q=22.0 size=       1KiB time=00:00:00.68 bitrate=   8.3kbits/s speed=0.0133x elapsed=0:00:51.47    \nframe=   43 fps=0.8 q=16.0 size=       1KiB time=00:00:00.70 bitrate=   8.1kbits/s speed=0.0135x elapsed=0:00:52.00    \nframe=   43 fps=0.8 q=16.0 size=       1KiB time=00:00:00.70 bitrate=   8.1kbits/s speed=0.0133x elapsed=0:00:52.53    \nframe=   44 fps=0.8 q=7.0 size=       1KiB time=00:00:00.71 bitrate=   7.9kbits/s speed=0.0135x elapsed=0:00:53.04    \nframe=   46 fps=0.9 q=22.0 size=       1KiB time=00:00:00.75 bitrate=   7.6kbits/s speed=0.014x elapsed=0:00:53.58    \nframe=   49 fps=0.9 q=4.0 size=       1KiB time=00:00:00.80 bitrate=   7.1kbits/s speed=0.0148x elapsed=0:00:54.10    \nframe=   50 fps=0.9 q=13.0 size=       1KiB time=00:00:00.81 bitrate=   7.0kbits/s speed=0.0149x elapsed=0:00:54.62    \nframe=   51 fps=0.9 q=16.0 size=       1KiB time=00:00:00.83 bitrate=   6.8kbits/s speed=0.0151x elapsed=0:00:55.14    \nframe=   51 fps=0.9 q=16.0 size=       1KiB time=00:00:00.83 bitrate=   6.8kbits/s speed=0.015x elapsed=0:00:55.67    \nframe=   52 fps=0.9 q=13.0 size=       1KiB time=00:00:00.85 bitrate=   6.7kbits/s speed=0.0151x elapsed=0:00:56.24    \nframe=   54 fps=1.0 q=11.0 size=       1KiB time=00:00:00.88 bitrate=   6.4kbits/s speed=0.0156x elapsed=0:00:56.76    \nframe=   54 fps=0.9 q=11.0 size=       1KiB time=00:00:00.88 bitrate=   6.4kbits/s speed=0.0154x elapsed=0:00:57.34    \nframe=   55 fps=1.0 q=11.0 size=       1KiB time=00:00:00.90 bitrate=   6.3kbits/s speed=0.0156x elapsed=0:00:57.85    \nframe=   56 fps=1.0 q=16.0 size=       1KiB time=00:00:00.91 bitrate=   6.2kbits/s speed=0.0157x elapsed=0:00:58.36    \nframe=   58 fps=1.0 q=14.0 size=       1KiB time=00:00:00.95 bitrate=   6.0kbits/s speed=0.0161x elapsed=0:00:58.91    \nframe=   59 fps=1.0 q=16.0 size=       1KiB time=00:00:00.96 bitrate=   5.9kbits/s speed=0.0163x elapsed=0:00:59.44    \nframe=   59 fps=1.0 q=16.0 size=       1KiB time=00:00:00.96 bitrate=   5.9kbits/s speed=0.0161x elapsed=0:00:59.99    \nframe=   60 fps=1.0 q=11.0 size=       1KiB time=00:00:00.98 bitrate=   5.8kbits/s speed=0.0162x elapsed=0:01:00.53    \nframe=   62 fps=1.0 q=15.0 size=       1KiB time=00:00:01.01 bitrate=   5.6kbits/s speed=0.0166x elapsed=0:01:01.06    \nframe=   65 fps=1.1 q=3.0 size=       1KiB time=00:00:01.06 bitrate=   5.3kbits/s speed=0.0173x elapsed=0:01:01.58    \nframe=   66 fps=1.1 q=14.0 size=       1KiB time=00:00:01.08 bitrate=   5.3kbits/s speed=0.0174x elapsed=0:01:02.11    \nframe=   67 fps=1.1 q=14.0 size=       1KiB time=00:00:01.10 bitrate=   5.2kbits/s speed=0.0176x elapsed=0:01:02.63    \nframe=   68 fps=1.1 q=14.0 size=       1KiB time=00:00:01.11 bitrate=   5.1kbits/s speed=0.0177x elapsed=0:01:03.15    \nframe=   69 fps=1.1 q=14.0 size=       1KiB time=00:00:01.13 bitrate=   5.0kbits/s speed=0.0178x elapsed=0:01:03.68    \nframe=   70 fps=1.1 q=13.0 size=       1KiB time=00:00:01.15 bitrate=   5.0kbits/s speed=0.0179x elapsed=0:01:04.22    \nframe=   71 fps=1.1 q=12.0 size=       1KiB time=00:00:01.16 bitrate=   4.9kbits/s speed=0.018x elapsed=0:01:04.78    \nframe=   71 fps=1.1 q=12.0 size=       1KiB time=00:00:01.16 bitrate=   4.9kbits/s speed=0.0179x elapsed=0:01:05.35    \nframe=   72 fps=1.1 q=13.0 size=       1KiB time=00:00:01.18 bitrate=   4.8kbits/s speed=0.0179x elapsed=0:01:05.95    \nframe=   75 fps=1.1 q=17.0 size=       1KiB time=00:00:01.21 bitrate=   4.7kbits/s speed=0.0183x elapsed=0:01:06.56    \nframe=   75 fps=1.1 q=17.0 size=       1KiB time=00:00:01.23 bitrate=   4.6kbits/s speed=0.0184x elapsed=0:01:07.20    \nframe=   76 fps=1.1 q=16.0 size=       1KiB time=00:00:01.25 bitrate=   4.6kbits/s speed=0.0185x elapsed=0:01:07.73    \nframe=   78 fps=1.1 q=13.0 size=       1KiB time=00:00:01.28 bitrate=   4.4kbits/s speed=0.0188x elapsed=0:01:08.28    \nframe=   80 fps=1.2 q=13.0 size=       1KiB time=00:00:01.31 bitrate=   4.3kbits/s speed=0.0191x elapsed=0:01:08.84    \nframe=   81 fps=1.2 q=3.0 size=       1KiB time=00:00:01.33 bitrate=   4.3kbits/s speed=0.0192x elapsed=0:01:09.36    \nframe=   82 fps=1.2 q=9.0 size=       1KiB time=00:00:01.35 bitrate=   4.2kbits/s speed=0.0193x elapsed=0:01:09.87    \nframe=   83 fps=1.2 q=16.0 size=       1KiB time=00:00:01.36 bitrate=   4.2kbits/s speed=0.0194x elapsed=0:01:10.39    \nframe=   84 fps=1.2 q=20.0 size=       1KiB time=00:00:01.38 bitrate=   4.1kbits/s speed=0.0195x elapsed=0:01:10.90    \nframe=   85 fps=1.2 q=15.0 size=       1KiB time=00:00:01.40 bitrate=   4.1kbits/s speed=0.0196x elapsed=0:01:11.49    \nframe=   86 fps=1.2 q=14.0 size=       1KiB time=00:00:01.41 bitrate=   4.0kbits/s speed=0.0197x elapsed=0:01:12.03    \nframe=   86 fps=1.2 q=14.0 size=       1KiB time=00:00:01.41 bitrate=   4.0kbits/s speed=0.0195x elapsed=0:01:12.54    \nframe=   89 fps=1.2 q=9.0 size=       1KiB time=00:00:01.46 bitrate=   3.9kbits/s speed=0.0201x elapsed=0:01:13.09    \nframe=   89 fps=1.2 q=9.0 size=       1KiB time=00:00:01.46 bitrate=   3.9kbits/s speed=0.0199x elapsed=0:01:13.66    \nframe=   90 fps=1.2 q=18.0 size=       1KiB time=00:00:01.48 bitrate=   3.8kbits/s speed=0.02x elapsed=0:01:14.20    \nframe=   92 fps=1.2 q=14.0 size=       1KiB time=00:00:01.51 bitrate=   3.8kbits/s speed=0.0203x elapsed=0:01:14.73    \nframe=   94 fps=1.2 q=17.0 size=       1KiB time=00:00:01.55 bitrate=   3.7kbits/s speed=0.0206x elapsed=0:01:15.27    \nframe=   97 fps=1.3 q=3.0 size=       1KiB time=00:00:01.60 bitrate=   3.6kbits/s speed=0.0211x elapsed=0:01:15.80    \nframe=   98 fps=1.3 q=17.0 size=       1KiB time=00:00:01.61 bitrate=   3.5kbits/s speed=0.0212x elapsed=0:01:16.31    \nframe=   98 fps=1.3 q=17.0 size=       1KiB time=00:00:01.61 bitrate=   3.5kbits/s speed=0.021x elapsed=0:01:16.85    \nframe=   99 fps=1.3 q=16.0 size=       1KiB time=00:00:01.63 bitrate=   3.5kbits/s speed=0.0211x elapsed=0:01:17.38    \nframe=  101 fps=1.3 q=14.0 size=       1KiB time=00:00:01.66 bitrate=   3.4kbits/s speed=0.0214x elapsed=0:01:17.92    \nframe=  101 fps=1.3 q=14.0 size=       1KiB time=00:00:01.66 bitrate=   3.4kbits/s speed=0.0212x elapsed=0:01:18.45    \nframe=  102 fps=1.3 q=15.0 size=       1KiB time=00:00:01.68 bitrate=   3.4kbits/s speed=0.0213x elapsed=0:01:18.98    \nframe=  104 fps=1.3 q=15.0 size=       1KiB time=00:00:01.71 bitrate=   3.3kbits/s speed=0.0216x elapsed=0:01:19.49    \nframe=  106 fps=1.3 q=18.0 size=       1KiB time=00:00:01.75 bitrate=   3.3kbits/s speed=0.0219x elapsed=0:01:20.02    \nframe=  107 fps=1.3 q=16.0 size=       1KiB time=00:00:01.76 bitrate=   3.2kbits/s speed=0.0219x elapsed=0:01:20.55    \nframe=  108 fps=1.3 q=15.0 size=       1KiB time=00:00:01.78 bitrate=   3.2kbits/s speed=0.022x elapsed=0:01:21.07    \nframe=  111 fps=1.4 q=16.0 size=       1KiB time=00:00:01.83 bitrate=   3.1kbits/s speed=0.0225x elapsed=0:01:21.58    \nframe=  113 fps=1.4 q=3.0 size=       1KiB time=00:00:01.86 bitrate=   3.1kbits/s speed=0.0227x elapsed=0:01:22.11    \nframe=  114 fps=1.4 q=18.0 size=       1KiB time=00:00:01.88 bitrate=   3.0kbits/s speed=0.0228x elapsed=0:01:22.62    \nframe=  115 fps=1.4 q=17.0 size=       1KiB time=00:00:01.90 bitrate=   3.0kbits/s speed=0.0229x elapsed=0:01:23.14    \nframe=  117 fps=1.4 q=15.0 size=       1KiB time=00:00:01.93 bitrate=   2.9kbits/s speed=0.0231x elapsed=0:01:23.66    \nframe=  118 fps=1.4 q=16.0 size=       1KiB time=00:00:01.95 bitrate=   2.9kbits/s speed=0.0232x elapsed=0:01:24.18    \nframe=  119 fps=1.4 q=12.0 size=       1KiB time=00:00:01.96 bitrate=   2.9kbits/s speed=0.0232x elapsed=0:01:24.74    \nframe=  121 fps=1.4 q=11.0 size=       1KiB time=00:00:02.00 bitrate=   2.8kbits/s speed=0.0235x elapsed=0:01:25.26    \nframe=  123 fps=1.4 q=17.0 size=       1KiB time=00:00:02.03 bitrate=   2.8kbits/s speed=0.0237x elapsed=0:01:25.81    \nframe=  124 fps=1.4 q=17.0 size=       1KiB time=00:00:02.05 bitrate=   2.8kbits/s speed=0.0237x elapsed=0:01:26.34    \nframe=  126 fps=1.5 q=19.0 size=       1KiB time=00:00:02.08 bitrate=   2.7kbits/s speed=0.024x elapsed=0:01:26.88    \nframe=  130 fps=1.5 q=20.0 size=       1KiB time=00:00:02.15 bitrate=   2.6kbits/s speed=0.0246x elapsed=0:01:27.42    \nframe=  130 fps=1.5 q=20.0 size=       1KiB time=00:00:02.15 bitrate=   2.6kbits/s speed=0.0244x elapsed=0:01:27.96    \nframe=  133 fps=1.5 q=17.0 size=       1KiB time=00:00:02.20 bitrate=   2.6kbits/s speed=0.0249x elapsed=0:01:28.47    \nframe=  134 fps=1.5 q=17.0 size=       1KiB time=00:00:02.21 bitrate=   2.6kbits/s speed=0.0249x elapsed=0:01:29.04    \nframe=  134 fps=1.5 q=17.0 size=       1KiB time=00:00:02.21 bitrate=   2.6kbits/s speed=0.0247x elapsed=0:01:29.62    \nframe=  137 fps=1.5 q=12.0 size=       1KiB time=00:00:02.26 bitrate=   2.5kbits/s speed=0.0251x elapsed=0:01:30.18    \nframe=  138 fps=1.5 q=20.0 size=       1KiB time=00:00:02.28 bitrate=   2.5kbits/s speed=0.0252x elapsed=0:01:30.70    \nframe=  139 fps=1.5 q=18.0 size=       1KiB time=00:00:02.30 bitrate=   2.5kbits/s speed=0.0252x elapsed=0:01:31.24    \nframe=  141 fps=1.5 q=14.0 size=       1KiB time=00:00:02.33 bitrate=   2.4kbits/s speed=0.0254x elapsed=0:01:31.77    \nframe=  143 fps=1.5 q=18.0 size=       1KiB time=00:00:02.36 bitrate=   2.4kbits/s speed=0.0256x elapsed=0:01:32.30    \nframe=  146 fps=1.6 q=21.0 size=       1KiB time=00:00:02.41 bitrate=   2.4kbits/s speed=0.026x elapsed=0:01:32.82    \nframe=  147 fps=1.6 q=20.0 size=       1KiB time=00:00:02.43 bitrate=   2.3kbits/s speed=0.0261x elapsed=0:01:33.39    \nframe=  149 fps=1.6 q=18.0 size=       1KiB time=00:00:02.46 bitrate=   2.3kbits/s speed=0.0263x elapsed=0:01:33.91    \nframe=  149 fps=1.6 q=18.0 size=       1KiB time=00:00:02.46 bitrate=   2.3kbits/s speed=0.0261x elapsed=0:01:34.43    \nframe=  150 fps=1.6 q=19.0 size=       1KiB time=00:00:02.48 bitrate=   2.3kbits/s speed=0.0262x elapsed=0:01:34.94    \nframe=  152 fps=1.6 q=19.0 size=       1KiB time=00:00:02.51 bitrate=   2.3kbits/s speed=0.0264x elapsed=0:01:35.47    \nframe=  154 fps=1.6 q=21.0 size=       1KiB time=00:00:02.55 bitrate=   2.2kbits/s speed=0.0266x elapsed=0:01:36.01    \nframe=  156 fps=1.6 q=21.0 size=       1KiB time=00:00:02.58 bitrate=   2.2kbits/s speed=0.0268x elapsed=0:01:36.56    \nframe=  158 fps=1.6 q=20.0 size=       1KiB time=00:00:02.61 bitrate=   2.2kbits/s speed=0.0269x elapsed=0:01:37.11    \nframe=  160 fps=1.6 q=20.0 size=       1KiB time=00:00:02.65 bitrate=   2.1kbits/s speed=0.0271x elapsed=0:01:37.66    \nframe=  162 fps=1.6 q=20.0 size=       1KiB time=00:00:02.68 bitrate=   2.1kbits/s speed=0.0273x elapsed=0:01:38.21    \nframe=  164 fps=1.7 q=20.0 size=       1KiB time=00:00:02.71 bitrate=   2.1kbits/s speed=0.0275x elapsed=0:01:38.75    \nframe=  165 fps=1.7 q=18.0 size=       1KiB time=00:00:02.73 bitrate=   2.1kbits/s speed=0.0275x elapsed=0:01:39.34    \nframe=  166 fps=1.7 q=20.0 size=       1KiB time=00:00:02.75 bitrate=   2.1kbits/s speed=0.0275x elapsed=0:01:39.88    \nframe=  166 fps=1.7 q=20.0 size=       1KiB time=00:00:02.75 bitrate=   2.1kbits/s speed=0.0274x elapsed=0:01:40.47    \nframe=  169 fps=1.7 q=15.0 size=       1KiB time=00:00:02.80 bitrate=   2.0kbits/s speed=0.0277x elapsed=0:01:41.03    \nframe=  170 fps=1.7 q=20.0 size=       1KiB time=00:00:02.81 bitrate=   2.0kbits/s speed=0.0277x elapsed=0:01:41.59    \nframe=  170 fps=1.7 q=20.0 size=       1KiB time=00:00:02.81 bitrate=   2.0kbits/s speed=0.0276x elapsed=0:01:42.10    \nframe=  172 fps=1.7 q=18.0 size=       1KiB time=00:00:02.85 bitrate=   2.0kbits/s speed=0.0278x elapsed=0:01:42.62    \nframe=  173 fps=1.7 q=15.0 size=       1KiB time=00:00:02.86 bitrate=   2.0kbits/s speed=0.0278x elapsed=0:01:43.14    \nframe=  175 fps=1.7 q=18.0 size=       1KiB time=00:00:02.90 bitrate=   2.0kbits/s speed=0.028x elapsed=0:01:43.69    \nframe=  177 fps=1.7 q=7.0 size=       1KiB time=00:00:02.93 bitrate=   1.9kbits/s speed=0.0281x elapsed=0:01:44.21    \nframe=  178 fps=1.7 q=20.0 size=       1KiB time=00:00:02.95 bitrate=   1.9kbits/s speed=0.0282x elapsed=0:01:44.73    \nframe=  178 fps=1.7 q=20.0 size=       1KiB time=00:00:02.95 bitrate=   1.9kbits/s speed=0.028x elapsed=0:01:45.24    \nframe=  179 fps=1.7 q=19.0 size=       1KiB time=00:00:02.96 bitrate=   1.9kbits/s speed=0.028x elapsed=0:01:45.80    \nframe=  180 fps=1.7 q=20.0 size=       1KiB time=00:00:02.98 bitrate=   1.9kbits/s speed=0.0281x elapsed=0:01:46.33    \nframe=  181 fps=1.7 q=18.0 size=       1KiB time=00:00:03.00 bitrate=   1.9kbits/s speed=0.0281x elapsed=0:01:46.83    \nframe=  181 fps=1.7 q=18.0 size=       1KiB time=00:00:03.00 bitrate=   1.9kbits/s speed=0.0279x elapsed=0:01:47.35    \nframe=  182 fps=1.7 q=16.0 size=       1KiB time=00:00:03.01 bitrate=   1.9kbits/s speed=0.028x elapsed=0:01:47.87    \nframe=  184 fps=1.7 q=17.0 size=       1KiB time=00:00:03.05 bitrate=   1.9kbits/s speed=0.0281x elapsed=0:01:48.56    \nframe=  185 fps=1.7 q=15.0 size=       1KiB time=00:00:03.06 bitrate=   1.9kbits/s speed=0.0281x elapsed=0:01:49.09    \nframe=  186 fps=1.7 q=20.0 size=       1KiB time=00:00:03.08 bitrate=   1.8kbits/s speed=0.0281x elapsed=0:01:49.62    \nframe=  187 fps=1.7 q=18.0 size=       1KiB time=00:00:03.10 bitrate=   1.8kbits/s speed=0.0281x elapsed=0:01:50.15    \nframe=  188 fps=1.7 q=20.0 size=       1KiB time=00:00:03.10 bitrate=   1.8kbits/s speed=0.028x elapsed=0:01:50.66    \nframe=  191 fps=1.7 q=17.0 size=       1KiB time=00:00:03.16 bitrate=   1.8kbits/s speed=0.0285x elapsed=0:01:51.19    \nframe=  192 fps=1.7 q=19.0 size=       1KiB time=00:00:03.18 bitrate=   1.8kbits/s speed=0.0285x elapsed=0:01:51.71    \nframe=  194 fps=1.7 q=20.0 size=       1KiB time=00:00:03.21 bitrate=   1.8kbits/s speed=0.0287x elapsed=0:01:52.23    \nframe=  194 fps=1.7 q=20.0 size=       1KiB time=00:00:03.21 bitrate=   1.8kbits/s speed=0.0285x elapsed=0:01:52.77    \nframe=  196 fps=1.7 q=20.0 size=       1KiB time=00:00:03.25 bitrate=   1.8kbits/s speed=0.0287x elapsed=0:01:53.30    \nframe=  197 fps=1.7 q=17.0 size=       1KiB time=00:00:03.26 bitrate=   1.7kbits/s speed=0.0287x elapsed=0:01:53.82    \nframe=  198 fps=1.7 q=19.0 size=       1KiB time=00:00:03.28 bitrate=   1.7kbits/s speed=0.0287x elapsed=0:01:54.35    \nframe=  199 fps=1.7 q=17.0 size=       1KiB time=00:00:03.30 bitrate=   1.7kbits/s speed=0.0287x elapsed=0:01:54.88    \nframe=  201 fps=1.7 q=13.0 size=       1KiB time=00:00:03.33 bitrate=   1.7kbits/s speed=0.0289x elapsed=0:01:55.44    \nframe=  205 fps=1.8 q=15.0 size=       1KiB time=00:00:03.40 bitrate=   1.7kbits/s speed=0.0293x elapsed=0:01:55.96    \nframe=  205 fps=1.8 q=15.0 size=       1KiB time=00:00:03.40 bitrate=   1.7kbits/s speed=0.0292x elapsed=0:01:56.48    \nframe=  209 fps=1.8 q=4.0 size=       1KiB time=00:00:03.46 bitrate=   1.6kbits/s speed=0.0296x elapsed=0:01:56.99    \nframe=  211 fps=1.8 q=19.0 size=       1KiB time=00:00:03.50 bitrate=   1.6kbits/s speed=0.0298x elapsed=0:01:57.53    \nframe=  213 fps=1.8 q=17.0 size=    5120KiB time=00:00:03.53 bitrate=11870.7kbits/s speed=0.0299x elapsed=0:01:58.06    \nframe=  217 fps=1.8 q=13.0 size=    5120KiB time=00:00:03.60 bitrate=11650.8kbits/s speed=0.0304x elapsed=0:01:58.58    \nframe=  217 fps=1.8 q=13.0 size=    5120KiB time=00:00:03.60 bitrate=11650.8kbits/s speed=0.0302x elapsed=0:01:59.10    \nframe=  217 fps=1.8 q=13.0 size=    5120KiB time=00:00:03.60 bitrate=11650.8kbits/s speed=0.0301x elapsed=0:01:59.63    \nframe=  219 fps=1.8 q=18.0 size=    5120KiB time=00:00:03.63 bitrate=11544.0kbits/s speed=0.0302x elapsed=0:02:00.15    \nframe=  221 fps=1.8 q=15.0 size=    5120KiB time=00:00:03.66 bitrate=11439.0kbits/s speed=0.0304x elapsed=0:02:00.69    \nframe=  221 fps=1.8 q=15.0 size=    5120KiB time=00:00:03.66 bitrate=11439.0kbits/s speed=0.0302x elapsed=0:02:01.21    \nframe=  223 fps=1.8 q=17.0 size=    5120KiB time=00:00:03.70 bitrate=11336.0kbits/s speed=0.0304x elapsed=0:02:01.74    \nframe=  225 fps=1.8 q=4.0 size=    5120KiB time=00:00:03.73 bitrate=11234.7kbits/s speed=0.0305x elapsed=0:02:02.26    \nframe=  227 fps=1.8 q=19.0 size=    5120KiB time=00:00:03.76 bitrate=11135.3kbits/s speed=0.0307x elapsed=0:02:02.80    \nframe=  229 fps=1.9 q=17.0 size=    5120KiB time=00:00:03.80 bitrate=11037.6kbits/s speed=0.0308x elapsed=0:02:03.32    \nframe=  229 fps=1.8 q=17.0 size=    5120KiB time=00:00:03.80 bitrate=11037.6kbits/s speed=0.0307x elapsed=0:02:03.84    \nframe=  233 fps=1.9 q=13.0 size=    5120KiB time=00:00:03.86 bitrate=10847.3kbits/s speed=0.0311x elapsed=0:02:04.37    \nframe=  233 fps=1.9 q=13.0 size=    5120KiB time=00:00:03.86 bitrate=10847.3kbits/s speed=0.031x elapsed=0:02:04.92    \nframe=  235 fps=1.9 q=19.0 size=    5120KiB time=00:00:03.90 bitrate=10754.6kbits/s speed=0.0311x elapsed=0:02:05.53    \nframe=  237 fps=1.9 q=16.0 size=    5120KiB time=00:00:03.93 bitrate=10663.5kbits/s speed=0.0312x elapsed=0:02:06.06    \nframe=  237 fps=1.9 q=16.0 size=    5120KiB time=00:00:03.93 bitrate=10663.5kbits/s speed=0.0311x elapsed=0:02:06.60    \nframe=  239 fps=1.9 q=18.0 size=    5120KiB time=00:00:03.96 bitrate=10573.9kbits/s speed=0.0312x elapsed=0:02:07.16    \nframe=  241 fps=1.9 q=5.0 size=    5120KiB time=00:00:04.00 bitrate=10485.8kbits/s speed=0.0313x elapsed=0:02:07.79    \nframe=  243 fps=1.9 q=20.0 size=    5120KiB time=00:00:04.03 bitrate=10399.1kbits/s speed=0.0314x elapsed=0:02:08.38    \nframe=  247 fps=1.9 q=20.0 size=    5120KiB time=00:00:04.06 bitrate=10313.9kbits/s speed=0.0315x elapsed=0:02:09.06    \nframe=  249 fps=1.9 q=13.0 size=    5120KiB time=00:00:04.13 bitrate=10147.5kbits/s speed=0.0319x elapsed=0:02:09.71    \nframe=  249 fps=1.9 q=13.0 size=    5120KiB time=00:00:04.13 bitrate=10147.5kbits/s speed=0.0317x elapsed=0:02:10.35    \nframe=  253 fps=1.9 q=15.0 size=    5120KiB time=00:00:04.16 bitrate=10066.3kbits/s speed=0.0318x elapsed=0:02:11.04    \nframe=  253 fps=1.9 q=15.0 size=    5120KiB time=00:00:04.20 bitrate=9986.4kbits/s speed=0.0319x elapsed=0:02:11.73    \nframe=  257 fps=1.9 q=5.0 size=    5120KiB time=00:00:04.26 bitrate=9830.4kbits/s speed=0.0322x elapsed=0:02:12.45    \nframe=  259 fps=1.9 q=20.0 size=    5120KiB time=00:00:04.30 bitrate=9754.2kbits/s speed=0.0323x elapsed=0:02:13.20    \nframe=  261 fps=1.9 q=18.0 size=    5120KiB time=00:00:04.33 bitrate=9679.2kbits/s speed=0.0324x elapsed=0:02:13.88    \nframe=  263 fps=2.0 q=14.0 size=    5120KiB time=00:00:04.36 bitrate=9605.3kbits/s speed=0.0324x elapsed=0:02:14.60    \nframe=  265 fps=2.0 q=14.0 size=    5120KiB time=00:00:04.40 bitrate=9532.5kbits/s speed=0.0325x elapsed=0:02:15.33    \nframe=  265 fps=1.9 q=14.0 size=    5120KiB time=00:00:04.40 bitrate=9532.5kbits/s speed=0.0324x elapsed=0:02:15.90    \nframe=  269 fps=2.0 q=15.0 size=    5120KiB time=00:00:04.43 bitrate=9460.8kbits/s speed=0.0325x elapsed=0:02:16.43    \nframe=  271 fps=2.0 q=23.0 size=    5120KiB time=00:00:04.46 bitrate=9390.2kbits/s speed=0.0326x elapsed=0:02:17.06    \nframe=  273 fps=2.0 q=6.0 size=    5120KiB time=00:00:04.53 bitrate=9252.1kbits/s speed=0.0329x elapsed=0:02:17.73    \nframe=  277 fps=2.0 q=19.0 size=    5120KiB time=00:00:04.60 bitrate=9118.1kbits/s speed=0.0333x elapsed=0:02:18.33    \nframe=  279 fps=2.0 q=19.0 size=    5120KiB time=00:00:04.60 bitrate=9118.1kbits/s speed=0.0331x elapsed=0:02:18.90    \nframe=  281 fps=2.0 q=17.0 size=    5120KiB time=00:00:04.66 bitrate=8987.8kbits/s speed=0.0334x elapsed=0:02:19.65    \nframe=  281 fps=2.0 q=17.0 size=    5120KiB time=00:00:04.66 bitrate=8987.8kbits/s speed=0.0332x elapsed=0:02:20.36    \nframe=  283 fps=2.0 q=19.0 size=    5120KiB time=00:00:04.70 bitrate=8924.1kbits/s speed=0.0333x elapsed=0:02:21.05    \nframe=  285 fps=2.0 q=19.0 size=    5120KiB time=00:00:04.73 bitrate=8861.2kbits/s speed=0.0334x elapsed=0:02:21.71    \nframe=  295 fps=2.1 q=20.0 size=    5120KiB time=00:00:04.86 bitrate=8618.4kbits/s speed=0.0342x elapsed=0:02:22.33    \n[out#0/matroska @ 000001fba48511c0] video:6395KiB audio:0KiB subtitle:0KiB other streams:0KiB global headers:0KiB muxing overhead: 0.033430%\nframe=  300 fps=2.1 q=24.0 Lsize=    6397KiB time=00:00:04.98 bitrate=10515.5kbits/s speed=0.0349x elapsed=0:02:22.68    \n",
  "seconds": 146.38585686683655,
  "probe_out": {}
}